<?xml version="1.0" standalone="no"?>
<!DOCTYPE svg PUBLIC "-//W3C//DTD SVG 20010904//EN"
 "http://www.w3.org/TR/2001/REC-SVG-20010904/DTD/svg10.dtd">
<svg version="1.0" xmlns="http://www.w3.org/2000/svg"
 width="426.000000pt" height="564.000000pt" viewBox="0 0 426.000000 564.000000"
 preserveAspectRatio="xMidYMid meet">

<g transform="translate(0.000000,564.000000) scale(0.100000,-0.100000)"
fill="#000000" stroke="none">
<path d="M0 2820 l0 -2820 2130 0 2130 0 0 2820 0 2820 -2130 0 -2130 0 0
-2820z m2211 2530 c12 -7 19 -21 19 -40 0 -25 -4 -30 -25 -30 -20 0 -25 5 -25
25 0 16 -6 25 -15 25 -12 0 -15 -14 -15 -70 0 -56 3 -70 15 -70 9 0 15 9 15
25 0 20 5 25 25 25 21 0 25 -5 25 -30 0 -32 -22 -50 -64 -50 -53 0 -56 6 -56
100 0 61 4 90 13 93 22 9 68 7 88 -3z m143 4 c13 -5 16 -23 16 -94 l0 -88 -30
-7 c-47 -10 -90 3 -91 28 -3 77 4 153 14 159 14 9 69 10 91 2z m130 -4 c23 -8
26 -15 26 -55 0 -47 -1 -48 -52 -59 -24 -6 -28 -11 -28 -41 0 -28 -4 -35 -20
-35 -19 0 -20 7 -20 100 l0 100 34 0 c19 0 46 -4 60 -10z m140 4 c13 -5 16
-24 16 -100 0 -87 -1 -94 -20 -94 -16 0 -20 7 -20 35 0 28 -4 35 -20 35 -16 0
-20 -7 -20 -35 0 -28 -4 -35 -20 -35 -19 0 -20 7 -20 94 0 82 2 95 18 99 27 7
69 8 86 1z m-844 -84 c0 -33 -4 -60 -10 -60 -6 0 -10 27 -10 60 0 33 4 60 10
60 6 0 10 -27 10 -60z m210 37 c0 -2 -7 -26 -16 -53 -18 -53 -34 -78 -34 -53
0 26 31 109 41 109 5 0 9 -1 9 -3z m-262 -59 c2 -22 -1 -38 -7 -38 -6 0 -11
14 -11 30 0 20 -5 30 -15 30 -14 0 -17 -5 -19 -39 -1 -8 -7 -16 -14 -19 -8 -2
-12 9 -12 38 l0 41 38 -3 c35 -3 37 -5 40 -40z m109 20 l10 -23 7 23 c4 12 12
22 17 22 5 0 14 -10 19 -22 l9 -23 7 23 c3 12 12 22 20 22 11 0 11 -6 0 -37
-15 -45 -33 -53 -46 -21 l-9 23 -7 -22 c-9 -33 -28 -28 -42 10 -14 40 -15 47
-4 47 5 0 13 -10 19 -22z m-218 -19 c-10 -6 -11 -9 -1 -9 6 0 12 -7 12 -14 0
-12 -6 -13 -30 -5 -37 14 -39 34 -2 47 29 10 45 -4 21 -19z m441 -4 c0 -7 -13
-18 -30 -24 -24 -8 -30 -7 -30 5 0 7 8 14 18 14 16 1 16 1 0 11 -29 16 -20 29
12 18 17 -6 30 -17 30 -24z m439 -221 c-15 -14 -34 -24 -43 -22 -28 5 9 48 42
48 l27 0 -26 -26z m-1218 -63 c16 -16 29 -34 29 -40 0 -19 -45 -12 -58 9 -14
22 -51 27 -70 8 -18 -18 -15 -123 4 -142 8 -9 22 -16 29 -16 15 0 45 27 45 41
0 12 37 12 44 0 4 -5 -6 -23 -20 -40 -36 -44 -93 -44 -136 -1 -29 29 -30 34
-26 97 4 57 8 69 32 89 39 34 89 32 127 -5z m180 2 c6 -16 26 -70 44 -120 l34
-93 -25 0 c-17 0 -27 8 -34 25 -8 21 -16 25 -50 25 -34 0 -42 -4 -50 -25 -7
-17 -17 -25 -35 -25 -23 0 -24 2 -14 28 6 15 22 59 36 97 14 39 29 80 34 93
12 32 47 29 60 -5z m149 -73 l0 -100 50 0 c43 0 50 -3 50 -20 0 -18 -7 -20
-75 -20 l-75 0 0 120 0 120 25 0 25 0 0 -100z m290 80 c0 -18 -7 -20 -55 -20
-54 0 -55 0 -55 -30 0 -29 2 -30 45 -30 38 0 45 -3 45 -20 0 -17 -7 -20 -45
-20 -43 0 -45 -1 -45 -29 0 -29 2 -30 52 -33 41 -2 54 -7 56 -20 3 -16 -6 -18
-77 -18 l-81 0 0 120 0 120 80 0 c73 0 80 -2 80 -20z m122 -63 l47 -82 1 83
c0 81 0 82 25 82 l25 0 0 -120 0 -120 -24 0 c-20 0 -34 15 -73 77 l-48 78 -3
-78 c-2 -68 -5 -77 -22 -77 -17 0 -19 10 -22 93 -4 130 -1 147 25 147 17 -1
33 -20 69 -83z m248 70 c64 -22 89 -111 50 -175 -23 -38 -54 -52 -116 -52
l-44 0 0 120 0 120 38 -1 c20 0 53 -5 72 -12z m221 -14 c6 -16 26 -70 44 -120
l34 -93 -23 0 c-15 0 -27 9 -34 25 -10 21 -18 25 -56 25 -39 0 -45 -3 -48 -22
-2 -17 -11 -24 -30 -26 l-28 -3 34 93 c55 150 54 148 76 148 13 0 24 -10 31
-27z m226 17 c17 -6 35 -21 40 -33 11 -25 0 -76 -19 -88 -10 -6 -7 -18 10 -54
27 -56 27 -55 -1 -55 -17 0 -28 11 -45 45 -15 31 -28 45 -42 45 -17 0 -20 -7
-20 -45 0 -41 -2 -45 -25 -45 l-25 0 0 113 c0 63 3 117 7 120 10 11 87 8 120
-3z m137 -12 c0 -10 -1 -63 -2 -118 -2 -93 -3 -100 -22 -100 -19 0 -20 7 -20
121 0 119 0 120 23 117 13 -2 22 -10 21 -20z m180 12 c70 -26 75 -183 7 -220
-56 -29 -133 10 -145 75 -9 48 9 110 41 134 28 23 58 26 97 11z m556 -1082
c19 -21 20 -34 20 -273 0 -239 -1 -252 -20 -273 l-21 -22 -1454 0 -1454 0 -21
22 c-19 21 -20 34 -20 272 0 243 1 250 22 273 l21 23 1453 0 1453 0 21 -22z
m-2148 -1755 c27 -24 22 -55 -18 -101 l-36 -42 41 0 c30 0 41 -4 41 -15 0 -12
-14 -15 -65 -15 -79 0 -82 9 -25 75 22 25 40 53 40 61 0 22 -31 30 -42 11 -10
-18 -48 -23 -48 -7 0 20 40 50 67 50 14 0 35 -7 45 -17z m152 -5 c22 -31 21
-126 -1 -150 -22 -24 -65 -23 -89 3 -26 28 -26 120 0 148 25 28 71 27 90 -1z
m123 10 c-2 -7 -17 -55 -33 -105 -21 -69 -33 -93 -46 -93 -14 0 -12 14 19 105
23 71 40 105 50 105 8 0 13 -6 10 -12z m113 -83 c0 -88 -1 -95 -20 -95 -18 0
-20 7 -20 71 l0 71 -26 -6 c-21 -6 -25 -3 -22 10 2 14 51 40 81 43 4 1 7 -42
7 -94z m150 0 c0 -88 -1 -95 -20 -95 -18 0 -20 7 -20 71 0 66 -1 70 -20 64
-15 -5 -20 -2 -20 13 0 17 34 36 73 41 4 1 7 -42 7 -94z m297 47 c7 -4 15 -22
19 -38 7 -38 -15 -64 -57 -64 -29 0 -29 1 -29 55 0 53 1 55 28 55 15 0 33 -4
39 -8z m111 -4 c7 -7 12 -26 12 -43 0 -36 -15 -55 -45 -55 -30 0 -45 19 -45
55 0 36 15 55 45 55 12 0 26 -5 33 -12z m74 -24 l12 -35 12 33 c6 18 18 34 27
36 14 3 17 -6 17 -52 0 -56 -19 -81 -21 -28 l-1 27 -11 -27 c-6 -16 -16 -28
-22 -28 -6 0 -16 12 -22 28 l-11 27 -1 -27 c-2 -53 -21 -28 -21 27 0 66 21 76
42 19z m118 -19 c0 -42 -3 -55 -15 -55 -12 0 -15 13 -15 55 0 42 3 55 15 55
12 0 15 -13 15 -55z m60 28 l14 -28 4 28 c2 15 10 27 18 27 10 0 14 -14 14
-55 0 -65 -19 -74 -47 -22 l-18 32 -3 -32 c-5 -54 -22 -37 -22 22 0 62 17 74
40 28z m147 12 c7 -21 -6 -33 -17 -16 -13 21 -40 5 -40 -24 0 -25 24 -45 38
-30 4 4 1 10 -5 12 -20 7 -15 23 7 23 15 0 20 -7 20 -25 0 -29 -19 -40 -54
-31 -28 7 -40 44 -26 80 7 20 16 26 40 26 18 0 33 -6 37 -15z m101 3 c7 -7 12
-26 12 -43 0 -36 -15 -55 -45 -55 -30 0 -45 19 -45 55 0 36 15 55 45 55 12 0
26 -5 33 -12z m317 -926 c77 -39 138 -121 151 -201 l7 -41 -76 0 c-85 0 -107
-6 -107 -27 0 -8 -13 -28 -29 -44 -52 -51 -128 -33 -157 37 l-14 34 -86 0 -87
0 7 41 c16 98 95 187 196 220 43 14 152 4 195 -19z m-2175 -27 l25 -14 -32
-13 c-41 -15 -41 -23 -3 -37 17 -5 30 -13 30 -16 0 -3 -13 -11 -30 -16 -16 -6
-30 -15 -30 -19 0 -4 14 -13 30 -19 17 -5 30 -13 30 -16 0 -3 -13 -11 -30 -16
-38 -14 -38 -22 3 -37 l32 -13 -34 -18 -35 -18 34 -18 34 -17 -35 -18 c-31
-17 -32 -19 -14 -26 47 -17 49 -28 9 -45 l-39 -16 38 -13 c44 -17 46 -23 11
-39 -25 -11 -30 -9 -75 38 -106 110 -103 276 6 386 40 39 41 40 75 20z m790
-205 l0 -120 -30 0 -30 0 0 85 0 85 -26 -6 c-23 -6 -25 -4 -22 17 2 17 15 28
48 41 25 9 48 17 53 17 4 1 7 -53 7 -119z m208 104 c23 -16 30 -62 12 -80 -7
-7 -5 -20 5 -42 14 -28 14 -34 1 -60 -17 -34 -34 -42 -82 -42 -34 0 -84 35
-84 60 0 16 49 12 67 -5 18 -18 32 -16 47 7 12 20 -8 48 -35 48 -12 0 -19 7
-19 20 0 13 7 20 20 20 24 0 37 27 21 43 -8 8 -14 8 -23 -1 -17 -17 -68 -15
-68 2 0 23 41 46 80 46 20 0 46 -7 58 -16z m291 -10 c31 -39 30 -158 -1 -191
-30 -32 -81 -31 -113 2 -22 21 -25 33 -25 95 0 62 3 74 25 95 34 35 86 34 114
-1z m188 4 c20 -19 23 -31 23 -93 0 -58 -4 -78 -21 -99 -28 -35 -80 -36 -114
-1 -22 21 -25 33 -25 95 0 62 3 74 25 95 31 32 80 33 112 3z m-368 -42 c17
-20 2 -46 -25 -46 -29 0 -41 24 -24 45 16 19 34 19 49 1z m5 -142 c7 -19 -10
-44 -29 -44 -19 0 -38 28 -31 45 7 20 52 19 60 -1z m-29 -554 c978 0 1453 3
1466 10 12 7 19 7 19 1 0 -6 -9 -15 -19 -21 -27 -14 -2905 -14 -2932 0 -10 6
-19 15 -19 21 0 6 7 6 19 -1 13 -7 488 -10 1466 -10z"/>
<path d="M2290 5260 c0 -63 2 -71 18 -68 14 3 17 14 17 68 0 54 -3 65 -17 68
-16 3 -18 -5 -18 -68z"/>
<path d="M2430 5295 c0 -24 5 -35 15 -35 10 0 15 11 15 35 0 24 -5 35 -15 35
-10 0 -15 -11 -15 -35z"/>
<path d="M2564 5316 c-9 -23 0 -51 16 -51 10 0 16 12 18 33 2 24 -1 32 -13 32
-8 0 -18 -6 -21 -14z"/>
<path d="M1413 4875 c-11 -34 -11 -35 17 -35 28 0 28 1 17 35 -6 19 -13 35
-17 35 -4 0 -11 -16 -17 -35z"/>
<path d="M2210 4870 c0 -77 1 -80 23 -80 35 0 57 30 57 78 0 47 -26 82 -60 82
-18 0 -20 -7 -20 -80z"/>
<path d="M2443 4875 c-11 -34 -11 -35 17 -35 28 0 28 1 17 35 -6 19 -13 35
-17 35 -4 0 -11 -16 -17 -35z"/>
<path d="M2640 4910 c0 -41 5 -45 47 -34 27 7 39 40 23 59 -7 8 -25 15 -41 15
-27 0 -29 -3 -29 -40z"/>
<path d="M2956 4928 c-30 -42 -15 -131 23 -141 11 -2 29 2 40 10 17 11 21 25
21 68 0 57 -16 85 -50 85 -10 0 -26 -10 -34 -22z"/>
<path d="M647 3892 c-15 -16 -17 -50 -17 -269 0 -229 1 -251 18 -266 17 -16
133 -17 1469 -17 1392 0 1451 1 1466 18 15 16 17 50 17 269 0 229 -1 251 -18
266 -17 16 -133 17 -1469 17 -1392 0 -1451 -1 -1466 -18z m333 -162 c0 -17 -7
-20 -50 -20 -49 0 -50 -1 -50 -30 0 -29 2 -30 45 -30 38 0 45 -3 45 -20 0 -17
-7 -20 -45 -20 l-45 0 0 -50 c0 -47 -2 -50 -25 -50 l-25 0 0 120 0 120 75 0
c68 0 75 -2 75 -20z m125 -20 c7 -19 26 -72 43 -117 l31 -83 -29 0 c-21 0 -29
6 -34 25 -6 22 -12 25 -50 25 -38 0 -45 -3 -50 -25 -5 -18 -13 -25 -31 -25
-14 0 -25 3 -25 8 0 4 19 58 42 120 39 105 43 113 66 110 18 -2 28 -12 37 -38z
m228 29 c25 -14 37 -28 37 -46 0 -18 -38 -16 -57 3 -19 19 -57 15 -61 -8 -2
-12 11 -23 48 -39 52 -22 70 -42 70 -78 0 -60 -107 -85 -155 -36 -14 13 -25
31 -25 40 0 23 43 19 58 -6 17 -26 67 -23 67 4 0 12 -18 27 -55 45 -50 25 -55
30 -58 64 -2 28 2 40 20 52 26 19 80 21 111 5z m227 -9 c0 -18 -7 -20 -55 -20
-54 0 -55 0 -55 -30 0 -29 1 -30 49 -30 41 0 49 -3 47 -17 -2 -14 -14 -19 -49
-21 -45 -3 -47 -5 -47 -33 0 -29 1 -29 55 -29 48 0 55 -2 55 -20 0 -18 -7 -20
-80 -20 l-80 0 0 120 0 120 80 0 c73 0 80 -2 80 -20z m256 -14 c29 -29 34 -41
34 -81 0 -86 -40 -125 -130 -125 l-50 0 0 120 0 120 56 0 c50 0 59 -3 90 -34z
m224 14 c0 -17 -7 -20 -50 -20 -49 0 -50 -1 -50 -30 0 -29 2 -30 45 -30 38 0
45 -3 45 -20 0 -17 -7 -20 -45 -20 -43 0 -45 -1 -45 -30 0 -29 1 -30 50 -30
43 0 50 -3 50 -20 0 -18 -7 -20 -80 -20 l-80 0 0 120 0 120 80 0 c73 0 80 -2
80 -20z m275 -5 c14 -13 25 -31 25 -40 0 -23 -47 -19 -60 5 -13 24 -43 26 -64
4 -22 -21 -21 -107 0 -129 24 -23 68 -16 72 13 3 18 -1 22 -22 22 -19 0 -26 5
-26 20 0 17 7 20 50 20 l50 0 0 -49 c0 -59 -13 -72 -79 -79 -43 -4 -52 -1 -81
25 -29 26 -33 35 -34 85 -1 90 29 126 107 127 28 1 45 -6 62 -24z m215 5 c24
-24 27 -82 5 -100 -20 -17 -19 -39 5 -75 26 -40 25 -45 -8 -45 -23 0 -32 8
-50 45 -29 60 -52 60 -52 -1 0 -43 -1 -45 -26 -42 l-26 3 0 100 c1 55 1 108 1
118 1 27 123 25 151 -3z m102 -52 c-4 -95 8 -130 46 -126 l27 3 3 98 3 97 30
0 31 0 -4 -94 c-3 -84 -6 -97 -27 -120 -18 -19 -35 -26 -62 -26 -80 0 -99 30
-99 155 l0 85 28 0 27 0 -3 -72z m311 63 c35 -14 53 -63 37 -102 -14 -33 -44
-49 -91 -49 -27 0 -29 -2 -29 -40 0 -38 -2 -40 -30 -40 l-30 0 0 120 0 120 59
0 c33 0 71 -4 84 -9z m218 -1 c28 -15 49 -63 49 -110 0 -75 -37 -120 -100
-120 -70 0 -105 50 -98 138 4 45 10 60 32 79 29 25 83 31 117 13z m234 -15
c14 -13 25 -29 25 -35 0 -16 -57 -12 -64 5 -7 19 -40 19 -55 1 -10 -12 -8 -18
11 -29 13 -8 33 -18 45 -22 25 -7 63 -50 63 -72 0 -8 -11 -25 -25 -38 -41 -42
-131 -29 -154 22 -15 32 -15 33 14 33 14 0 29 -8 35 -20 12 -23 52 -27 69 -6
14 16 3 27 -49 49 -73 30 -91 79 -44 116 38 30 98 28 129 -4z"/>
<path d="M1057 3658 c-4 -14 -10 -33 -13 -42 -5 -12 0 -16 20 -16 29 0 31 11
12 55 l-13 30 -6 -27z"/>
<path d="M1720 3630 c0 -78 1 -80 24 -80 32 0 47 21 53 74 4 35 1 48 -16 65
-11 11 -30 21 -41 21 -18 0 -20 -7 -20 -80z"/>
<path d="M2430 3674 c0 -32 2 -35 26 -32 56 6 53 68 -2 68 -21 0 -24 -5 -24
-36z"/>
<path d="M2860 3670 c0 -33 3 -40 19 -40 36 0 51 12 51 40 0 28 -15 40 -51 40
-16 0 -19 -7 -19 -40z"/>
<path d="M3076 3688 c-33 -46 -10 -138 34 -138 10 0 26 10 34 22 33 46 10 138
-34 138 -10 0 -26 -10 -34 -22z"/>
<path d="M1531 2111 c-15 -28 -14 -74 3 -97 23 -30 38 -5 34 56 -3 57 -20 75
-37 41z"/>
<path d="M2240 2065 c0 -25 4 -35 13 -32 6 2 12 16 12 32 0 16 -6 30 -12 33
-9 2 -13 -8 -13 -33z"/>
<path d="M2338 2088 c-7 -21 4 -58 17 -58 17 0 27 28 20 51 -7 21 -31 25 -37
7z"/>
<path d="M2837 2086 c-8 -21 3 -56 18 -56 17 0 27 28 20 51 -7 22 -31 25 -38
5z"/>
<path d="M3065 1090 c-3 -5 -22 -10 -41 -10 -19 0 -34 -2 -34 -5 0 -2 14 -19
31 -36 24 -25 28 -34 17 -40 -10 -6 -10 -9 0 -9 6 0 12 -5 12 -11 0 -5 -4 -8
-9 -5 -5 3 -8 -2 -7 -11 1 -20 28 -52 38 -46 5 2 16 -1 25 -7 16 -10 15 -10
-4 -5 -12 3 -24 2 -27 -3 -9 -15 31 -21 50 -8 15 12 16 13 0 19 -21 8 -21 47
0 47 10 0 14 -6 10 -15 -3 -8 -1 -15 4 -15 14 0 12 54 -1 67 -9 9 -4 20 20 43
17 17 31 33 31 36 0 2 -15 4 -34 4 -19 0 -38 5 -41 10 -3 6 -12 10 -20 10 -8
0 -17 -4 -20 -10z m45 -105 c0 -8 -7 -15 -15 -15 -8 0 -15 -4 -15 -10 0 -5 -4
-10 -10 -10 -11 0 -14 33 -3 43 12 13 43 7 43 -8z"/>
<path d="M2247 1023 c-11 -10 -8 -141 2 -148 19 -11 41 27 41 71 0 62 -21 99
-43 77z"/>
<path d="M2443 1023 c-17 -6 -18 -139 -1 -149 19 -12 38 27 38 76 0 49 -17 81
-37 73z"/>
</g>
</svg>
