<svg width="50" height="51" viewBox="0 0 50 51" fill="none" xmlns="http://www.w3.org/2000/svg">
<g clip-path="url(#clip0_407_296)">
<path d="M25 50.8181C38.8071 50.8181 50 39.6252 50 25.8181C50 12.011 38.8071 0.818115 25 0.818115C11.1929 0.818115 0 12.011 0 25.8181C0 39.6252 11.1929 50.8181 25 50.8181Z" fill="#F0F0F0"/>
<path d="M5.16797 10.5975C3.20421 13.1525 1.72344 16.0973 0.861237 19.2965H13.8669L5.16797 10.5975Z" fill="#0052B4"/>
<path d="M49.1388 19.2965C48.2766 16.0975 46.7957 13.1526 44.832 10.5977L36.1333 19.2965H49.1388Z" fill="#0052B4"/>
<path d="M0.861237 32.34C1.72354 35.539 3.2043 38.4838 5.16797 41.0387L13.8666 32.34H0.861237Z" fill="#0052B4"/>
<path d="M40.2205 5.98616C37.6655 4.02239 34.7208 2.54163 31.5217 1.67932V14.6849L40.2205 5.98616Z" fill="#0052B4"/>
<path d="M9.77951 45.6501C12.3345 47.6138 15.2793 49.0946 18.4783 49.9569V36.9514L9.77951 45.6501Z" fill="#0052B4"/>
<path d="M18.4782 1.67932C15.2792 2.54163 12.3344 4.02239 9.77951 5.98606L18.4782 14.6848V1.67932Z" fill="#0052B4"/>
<path d="M31.5218 49.9569C34.7208 49.0946 37.6656 47.6138 40.2205 45.6501L31.5218 36.9514V49.9569Z" fill="#0052B4"/>
<path d="M36.1333 32.34L44.832 41.0388C46.7957 38.4839 48.2766 35.539 49.1388 32.34H36.1333Z" fill="#0052B4"/>
<path d="M49.7884 22.5573H28.261H28.2609V1.02974C27.1935 0.890771 26.1052 0.818115 25 0.818115C23.8946 0.818115 22.8065 0.890771 21.7392 1.02974V22.5571V22.5572H0.211621C0.0726563 23.6247 0 24.7129 0 25.8181C0 26.9235 0.0726563 28.0116 0.211621 29.079H21.739H21.7391V50.6065C22.8065 50.7455 23.8946 50.8181 25 50.8181C26.1052 50.8181 27.1935 50.7456 28.2608 50.6065V29.0792V29.0791H49.7884C49.9273 28.0116 50 26.9235 50 25.8181C50 24.7129 49.9273 23.6247 49.7884 22.5573V22.5573Z" fill="#D80027"/>
<path d="M31.5218 32.3399L42.6777 43.4958C43.1907 42.9829 43.6802 42.4467 44.1472 41.8908L34.5962 32.3398H31.5218V32.3399Z" fill="#D80027"/>
<path d="M18.4782 32.34H18.478L7.32227 43.4957C7.83516 44.0088 8.37139 44.4983 8.92725 44.9653L18.4782 35.4141V32.34Z" fill="#D80027"/>
<path d="M18.4782 19.2965V19.2963L7.32238 8.14038C6.80929 8.65327 6.31984 9.1895 5.85284 9.74536L15.4039 19.2964H18.4782V19.2965Z" fill="#D80027"/>
<path d="M31.5218 19.2965L42.6777 8.14045C42.1649 7.62737 41.6286 7.13792 41.0728 6.67102L31.5218 16.2221V19.2965Z" fill="#D80027"/>
</g>
<defs>
<clipPath id="clip0_407_296">
<rect width="50" height="50" fill="white" transform="translate(0 0.818115)"/>
</clipPath>
</defs>
</svg>
